<svg width="320" height="162" viewBox="0 0 320 162" fill="none" xmlns="http://www.w3.org/2000/svg">
<path d="M282 80.5C282 106.734 260.734 128 234.5 128C208.266 128 187 106.734 187 80.5C187 54.2665 208.266 33 234.5 33C260.734 33 282 54.2665 282 80.5Z" stroke="#DF5C9A" stroke-width="12"/>
<path d="M132 81C132 106.957 110.957 128 85 128C59.0426 128 38 106.957 38 81C38 55.0426 59.0426 34 85 34C110.957 34 132 55.0426 132 81Z" stroke="#75ABC7" stroke-width="12"/>
<rect x="137" y="111" width="46" height="23" rx="11.5" fill="white"/>
<rect x="6" y="6" width="308" height="150" rx="70" stroke="white" stroke-width="12"/>
</svg>
